# xmcd CD database file
#
# Track frame offsets:
#	150
#	1872
#	23652
#	46117
#	73282
#	94655
#	118420
#	139255
#	160280
#	182777
#	205372
#
# Disc length: 3041 seconds
#
# Revision: 1
# Processed by: cddbd v1.5.1PL0 Copyright (c) Steve Scherf et al.
# Submitted via: CDex 1.51
#
DISCID=980bdf0b
DTITLE=池間アカネ - AK' KA
DYEAR=2000
DGENRE=Japanese Pop
TTITLE0=〜Wangi Laut〜
TTITLE1=Malam Jam
TTITLE2=24
TTITLE3=DARK
TTITLE4=願いかけて
TTITLE5=わたし
TTITLE6=SPECIAL LOVE
TTITLE7=強くなった
TTITLE8=Bunga Woman
TTITLE9=夢を見させて
TTITLE10=biru pulau 〜青い鳥〜
EXTD=YEAR: 2000
EXTT0=
EXTT1=
EXTT2=
EXTT3=
EXTT4=
EXTT5=
EXTT6=
EXTT7=
EXTT8=
EXTT9=
EXTT10=
PLAYORDER=
